<svg xmlns="http://www.w3.org/2000/svg" xmlns:xlink="http://www.w3.org/1999/xlink" fill="none" version="1.1" width="33" height="33" viewBox="0 0 33 33"><defs><clipPath id="master_svg0_5408_21788"><rect x="0" y="0" width="33" height="33" rx="3"/></clipPath></defs><g clip-path="url(#master_svg0_5408_21788)"><g><path d="M16.48923,6.55364L18.988329999999998,8.94828L13.99013,8.94828L16.48923,6.55364ZM20.17325,8.94828L22.5,8.94828L19.48384,5.5L18.729799999999997,5.5L20.17325,8.94828ZM16.48923,13.90038L19.44075,9.33142L13.52693,9.33142L16.48923,13.90038ZM18.29892,5.5L14.668759999999999,5.5L13.30072,8.90996L16.48923,5.978927L19.67774,8.91954L18.29892,5.5ZM19.93627,9.33142L16.48923,14.72414L13.04219,9.33142L10.758528,9.33142L16.47846,15.5L22.1553,9.33142L19.93627,9.33142ZM12.79443,8.94828L14.23788,5.5L13.48384,5.5L10.5,8.94828L12.79443,8.94828Z" fill="#FFC300" fill-opacity="1"/></g><g><path d="M9.48923,18.55364L11.98833,20.94828L6.990130000000001,20.94828L9.48923,18.55364ZM13.17325,20.94828L15.5,20.94828L12.48384,17.5L11.7298,17.5L13.17325,20.94828ZM9.48923,25.90038L12.44075,21.33142L6.52693,21.33142L9.48923,25.90038ZM11.298919999999999,17.5L7.66876,17.5L6.30072,20.909959999999998L9.48923,17.978927L12.67774,20.91954L11.298919999999999,17.5ZM12.93627,21.33142L9.48923,26.72414L6.04219,21.33142L3.758528,21.33142L9.47846,27.5L15.1553,21.33142L12.93627,21.33142ZM5.79443,20.94828L7.2378800000000005,17.5L6.48384,17.5L3.5,20.94828L5.79443,20.94828Z" fill="#FFC300" fill-opacity="1"/></g><g><path d="M23.48923,18.55364L25.988329999999998,20.94828L20.99013,20.94828L23.48923,18.55364ZM27.17325,20.94828L29.5,20.94828L26.48384,17.5L25.729799999999997,17.5L27.17325,20.94828ZM23.48923,25.90038L26.44075,21.33142L20.52693,21.33142L23.48923,25.90038ZM25.29892,17.5L21.66876,17.5L20.30072,20.909959999999998L23.48923,17.978927L26.67774,20.91954L25.29892,17.5ZM26.93627,21.33142L23.48923,26.72414L20.04219,21.33142L17.758528,21.33142L23.47846,27.5L29.1553,21.33142L26.93627,21.33142ZM19.79443,20.94828L21.23788,17.5L20.48384,17.5L17.5,20.94828L19.79443,20.94828Z" fill="#FFC300" fill-opacity="1"/></g><rect x="0.5" y="0.5" width="32" height="32" rx="3" fill-opacity="0" stroke-opacity="1" stroke="#FFC300" fill="none" stroke-width="1"/></g></svg>