<svg xmlns="http://www.w3.org/2000/svg" xmlns:xlink="http://www.w3.org/1999/xlink" fill="none" version="1.1" width="33" height="33" viewBox="0 0 33 33"><defs><clipPath id="master_svg0_5408_21784"><rect x="0" y="0" width="33" height="33" rx="3"/></clipPath></defs><g clip-path="url(#master_svg0_5408_21784)"><g><path d="M16.930875498046873,11.68268203125L20.077885498046875,14.87553203125L13.783855498046876,14.87553203125L16.930875498046873,11.68268203125ZM21.569985498046876,14.87553203125L24.499985498046875,14.87553203125L20.701885498046877,10.27783203125L19.752385498046877,10.27783203125L21.569985498046876,14.87553203125ZM16.930875498046873,21.478332031249998L20.647585498046872,15.38639203125L13.200575498046875,15.38639203125L16.930875498046873,21.478332031249998ZM19.209755498046874,10.27783203125L14.638435498046874,10.27783203125L12.915715498046875,14.82445203125L16.930875498046873,10.91640203125L20.946085498046877,14.83722203125L19.209755498046874,10.27783203125ZM21.271585498046875,15.38639203125L16.930875498046873,22.57673203125L12.590165498046876,15.38639203125L9.714439498046875,15.38639203125L16.917315498046875,23.61113203125L24.065885498046875,15.38639203125L21.271585498046875,15.38639203125ZM12.278175498046874,14.87553203125L14.095845498046874,10.27783203125L13.146315498046874,10.27783203125L9.388885498046875,14.87553203125L12.278175498046874,14.87553203125Z" fill="#FFC300" fill-opacity="1"/></g><rect x="0.5" y="0.5" width="32" height="32" rx="3" fill-opacity="0" stroke-opacity="1" stroke="#FFC300" fill="none" stroke-width="1"/></g></svg>