<svg xmlns="http://www.w3.org/2000/svg" xmlns:xlink="http://www.w3.org/1999/xlink" fill="none" version="1.1"
  width="1440" height="80" viewBox="0 0 1440 80">
  <defs>
    <clipPath id="master_svg0_1867_18637">
      <rect x="1219.5" y="35.5" width="21" height="21" rx="0" />
    </clipPath>
  </defs>
  <g>
    <g>
      <g>
        <g>
          <rect x="0" y="0" width="1440" height="80" rx="0" fill="#030303" fill-opacity="1" />
        </g>
        <g>
          <g>
            <g></g>
            <g></g>
            <g>
              <path
                d="M1288.3410283824157,39.55517578125L1285.7622183824158,39.55517578125L1283.9991583824158,44.72236578125L1286.5779683824157,44.72236578125L1288.3410283824157,39.55517578125Z"
                fill="#FFCC00" fill-opacity="1" />
            </g>
            <g>
              <path
                d="M1295.8405890464783,54.99991513671875L1298.4193990464782,54.99991513671875L1299.7877490464782,50.99676513671875L1297.2352490464782,50.99676513671875L1295.8405890464783,54.99991513671875Z"
                fill="#FFCC00" fill-opacity="1" />
            </g>
            <g>
              <path
                d="M1303.7086829917907,39.55517578125L1301.1561829917907,39.55517578125L1299.3930829917908,44.72236578125L1291.7093229917907,44.72236578125L1293.4723829917907,39.55517578125L1290.8935729917907,39.55517578125L1288.8936829917907,45.43214578125L1292.5250629917907,45.43214578125L1292.5250629917907,46.56779578125L1288.4989629917907,46.56779578125L1285.6043829917908,54.99997578125L1288.1568829917908,54.99997578125L1290.8146329917909,47.27757578125L1298.4983829917908,47.27757578125L1297.6300829917907,49.86117578125L1300.1825829917907,49.86117578125L1303.7086829917907,39.55517578125Z"
                fill="#FFCC00" fill-opacity="1" />
            </g>
            <g>
              <path
                d="M1302.0245949839782,37L1294.3407999839783,37L1294.1302839839782,37.596215L1297.7616649839783,37.596215L1297.7616649839783,38.73186L1293.7355689839783,38.73186L1293.4724249839783,39.55521L1301.1562249839783,39.55521L1302.0245949839782,37Z"
                fill="#FFCC00" fill-opacity="1" />
            </g>
            <g>
              <path
                d="M1306.2874100230408,39.55517578125L1302.7349650230408,49.86117578125L1304.2348800230407,49.86117578125L1304.2348800230407,50.99677578125L1302.3665610230407,50.99677578125L1301.8665900230408,52.44477578125L1304.4190800230408,52.44477578125L1308.8399000230409,39.55517578125L1306.2874100230408,39.55517578125Z"
                fill="#FFCC00" fill-opacity="1" />
            </g>
            <g>
              <path
                d="M1316.8131166246033,38.73186L1312.3922966246032,38.73186L1312.3922966246032,37.596215L1317.2078266246033,37.596215L1317.4183466246034,37L1309.7345436246032,37L1308.8398566246033,39.55521L1316.5236566246033,39.55521L1316.8131166246033,38.73186Z"
                fill="#FFCC00" fill-opacity="1" />
            </g>
            <g>
              <path
                d="M1303.5506720542908,54.9999021484375L1311.2344720542908,54.9999021484375L1312.1028420542907,52.4447021484375L1304.4190470542908,52.4447021484375L1303.5506720542908,54.9999021484375Z"
                fill="#FFCC00" fill-opacity="1" />
            </g>
            <g>
              <path
                d="M1318.2079083824158,42.13877578125L1319.1025983824159,39.55517578125L1316.5237833824158,39.55517578125L1315.6554083824158,42.13877578125L1318.2079083824158,42.13877578125Z"
                fill="#FFCC00" fill-opacity="1" />
            </g>
            <g>
              <path
                d="M1312.1027960777283,52.4448060546875L1314.6816060777282,52.4448060546875L1315.5499860777284,49.8612060546875L1312.9974870777282,49.8612060546875L1312.1027960777283,52.4448060546875Z"
                fill="#FFCC00" fill-opacity="1" />
            </g>
            <g>
              <path
                d="M1325.1022276011659,37L1322.5497376011658,37L1318.7604676011658,48.0158L1320.3656476011658,48.0158L1320.3656476011658,49.1514L1318.3657476011658,49.1514L1316.3658576011658,55L1318.9183476011658,55L1321.5760976011659,47.2776L1324.1285976011657,47.2776L1325.0232876011657,44.7224L1322.4444776011658,44.7224L1325.1022276011659,37Z"
                fill="#FFCC00" fill-opacity="1" />
            </g>
            <g>
              <path
                d="M1325.0232062339783,44.72233291015625L1327.5756962339783,44.72233291015625L1328.4703962339784,42.13873291015625L1325.8915812339783,42.13873291015625L1325.0232062339783,44.72233291015625Z"
                fill="#FFCC00" fill-opacity="1" />
            </g>
            <g>
              <path
                d="M1325.8127095933532,49.861187890625L1326.6810895933534,47.277587890625L1324.1285905933532,47.277587890625L1323.2338995933533,49.861187890625L1325.8127095933532,49.861187890625Z"
                fill="#FFCC00" fill-opacity="1" />
            </g>
            <g>
              <path
                d="M1328.4704718589783,42.13877578125L1331.0229618589783,42.13877578125L1331.9176618589784,39.55517578125L1329.3388468589783,39.55517578125L1328.4704718589783,42.13877578125Z"
                fill="#FFCC00" fill-opacity="1" />
            </g>
            <g>
              <path
                d="M1327.4967916246032,52.4448060546875L1328.3651716246034,49.8612060546875L1325.8126726246032,49.8612060546875L1324.9179816246033,52.4448060546875L1327.4967916246032,52.4448060546875Z"
                fill="#FFCC00" fill-opacity="1" />
            </g>
            <g>
              <path
                d="M1335.3647723277284,37L1332.7859643277284,37L1332.5754523277283,37.596214L1335.1279423277283,37.596214L1335.3647723277284,37Z"
                fill="#FFCC00" fill-opacity="1" />
            </g>
            <g>
              <path
                d="M1331.9176154136658,39.55521655859375L1334.4701054136658,39.55521655859375L1334.7595654136658,38.73187255859375L1332.1807634136658,38.73187255859375L1331.9176154136658,39.55521655859375Z"
                fill="#FFCC00" fill-opacity="1" />
            </g>
            <g>
              <path
                d="M1329.1809957261657,54.9999021484375L1330.0493757261659,52.4447021484375L1327.4968727261657,52.4447021484375L1326.6021857261658,54.9999021484375L1329.1809957261657,54.9999021484375Z"
                fill="#FFCC00" fill-opacity="1" />
            </g>
            <g>
              <path
                d="M1344.6274113121033,47.2776L1345.5221113121033,44.7224L1337.8383513121032,44.7224L1339.6014113121032,39.55521L1349.8377113121032,39.55521L1350.7324113121033,37L1337.9172913121033,37L1337.7067813121032,37.596214L1340.2855813121032,37.596214L1340.2855813121032,38.73186L1337.3120613121032,38.73186L1331.7334113121033,55L1344.5485113121033,55L1345.4169113121034,52.4448L1335.1806013121034,52.4448L1336.9436513121034,47.2776L1344.6274113121033,47.2776Z"
                fill="#FFCC00" fill-opacity="1" />
            </g>
            <g>
              <path
                d="M1353.2848013902283,37L1351.5217413902283,42.1388L1354.1005513902282,42.1388L1355.8636113902282,37L1353.2848013902283,37Z"
                fill="#FFCC00" fill-opacity="1" />
            </g>
            <g>
              <path
                d="M1347.1010870933533,55.0000060546875L1349.6798970933532,55.0000060546875L1351.4429570933532,49.8612060546875L1348.8641570933532,49.8612060546875L1347.1010870933533,55.0000060546875Z"
                fill="#FFCC00" fill-opacity="1" />
            </g>
            <g>
              <path
                d="M1354.1006324917907,42.13873291015625L1353.2059454917908,44.72233291015625L1355.7584354917908,44.72233291015625L1356.6531354917909,42.13873291015625L1354.1006324917907,42.13873291015625Z"
                fill="#FFCC00" fill-opacity="1" />
            </g>
            <g>
              <path
                d="M1351.4428839683533,49.861187890625L1353.9953739683533,49.861187890625L1354.8900739683534,47.277587890625L1352.3112589683533,47.277587890625L1351.4428839683533,49.861187890625Z"
                fill="#FFCC00" fill-opacity="1" />
            </g>
            <g>
              <path
                d="M1354.8900275230408,47.277622109375L1357.4425275230408,47.277622109375L1358.3372175230409,44.722412109375L1355.7583985230408,44.722412109375L1354.8900275230408,47.277622109375Z"
                fill="#FFCC00" fill-opacity="1" />
            </g>
            <g>
              <path
                d="M1358.3372931480408,44.72233291015625L1360.8897831480408,44.72233291015625L1361.7844831480409,42.13873291015625L1359.2056681480408,42.13873291015625L1358.3372931480408,44.72233291015625Z"
                fill="#FFCC00" fill-opacity="1" />
            </g>
            <g>
              <path
                d="M1359.1267316246033,49.861187890625L1360.0214216246034,47.277587890625L1357.4426066246033,47.277587890625L1356.5742316246033,49.861187890625L1359.1267316246033,49.861187890625Z"
                fill="#FFCC00" fill-opacity="1" />
            </g>
            <g>
              <path
                d="M1366.0998815464782,37L1363.5473785464783,37L1362.9421515464783,38.73186L1365.4946415464783,38.73186L1366.0998815464782,37Z"
                fill="#FFCC00" fill-opacity="1" />
            </g>
            <g>
              <path
                d="M1361.7844367027283,42.13878267578125L1364.3369267027283,42.13878267578125L1365.1263567027283,39.86749267578125L1362.5475517027282,39.86749267578125L1361.7844367027283,42.13878267578125Z"
                fill="#FFCC00" fill-opacity="1" />
            </g>
            <g>
              <path
                d="M1360.2845603355408,50.9400760546875L1360.2845603355408,52.0757160546875L1358.3636113355408,52.0757160546875L1357.3636603355408,55.0000060546875L1359.9161603355408,55.0000060546875L1361.6792203355408,49.8612060546875L1359.1267303355407,49.8612060546875L1358.7583303355407,50.9400760546875L1360.2845603355408,50.9400760546875Z"
                fill="#FFCC00" fill-opacity="1" />
            </g>
            <g>
              <path
                d="M1270.2367072105408,54.9999471875L1272.7891972105408,54.9999471875L1274.7890972105408,49.1513671875L1272.2365972105408,49.1513671875L1270.2367072105408,54.9999471875Z"
                fill="#FFCC00" fill-opacity="1" />
            </g>
            <g>
              <path
                d="M1274.1839105308534,43.47319L1274.7891405308533,41.68454L1275.1838505308533,40.5489L1275.8154005308534,38.73186L1276.1838005308532,37.596214L1276.3943205308533,37L1286.6569605308532,37L1285.7622605308534,39.55521L1278.0784405308532,39.55521L1276.3153705308532,44.7224L1283.9991605308533,44.7224L1283.1307605308532,47.2776L1275.4470005308533,47.2776L1275.1838505308533,48.0158L1272.6313605308533,48.0158L1273.7891905308534,44.60883L1274.1839105308534,43.47319Z"
                fill="#FFCC00" fill-opacity="1" />
            </g>
          </g>
        </g>
      </g>
      <g>
        <path
          d="M1090.47,20L1170.5,20L1170.5,18L1089.42,18L1060.58,60L905.523,60L891.713,26L445.043,26L431.113,60L56,60L56,62L432.455,62L446.385,28L890.366,28L904.176,62L1061.63,62L1090.47,20Z"
          fill-rule="evenodd" fill="#5B5B5B" fill-opacity="1" />
      </g>

      <g>

        <g>
          <rect x="1216.5" y="32.5" width="27" height="27" rx="2.5" fill-opacity="0" stroke-opacity="1" stroke="#4A4A4A"
            fill="none" stroke-width="1" />
        </g>
        <g clip-path="url(#master_svg0_1867_18637)">
          <g>
            <path
              d="M1235.4634900390624,37.46875L1238.3580900390625,37.46875L1232.0343900390626,44.69626L1239.4736900390626,54.53125L1233.6487900390625,54.53125L1229.0865400390626,48.56635L1223.8662800390625,54.53125L1220.9700400390625,54.53125L1227.7337800390626,46.80062L1220.5972900390625,37.46875L1226.5700500390626,37.46875L1230.6938900390626,42.92088L1235.4634900390624,37.46875ZM1234.4476900390625,52.79875L1236.0515900390626,52.79875L1225.6985300390625,39.11026L1223.9773900390626,39.11026L1234.4476900390625,52.79875Z"
              fill="#FFFFFF" fill-opacity="1" />
          </g>
        </g>
      </g>
    </g>
    <g>
      <rect x="76" y="35" width="10" height="10" rx="0" fill="#FFC300" fill-opacity="1" />
    </g>
    <g>
      <rect x="96" y="35" width="10" height="10" rx="0" fill="#FFC300" fill-opacity="1" />
    </g>
    <g>
      <rect x="116" y="35" width="10" height="10" rx="0" fill="#FFC300" fill-opacity="1" />
    </g>
    <g>
      <rect x="136" y="35" width="10" height="10" rx="0" fill="#FFC300" fill-opacity="1" />
    </g>
    <g>
      <rect x="949" y="34" width="24" height="10" rx="0" fill="#FFC300" fill-opacity="1" />
    </g>
    <g>
      <rect x="1120" y="34" width="47" height="10" rx="0" fill="#FFC300" fill-opacity="1" />
    </g>
    <g>
      <rect x="983" y="34" width="20" height="10" rx="0" fill="#FFC300" fill-opacity="1" />
    </g>
    <g>
      <rect x="1013" y="34" width="10" height="10" rx="0" fill="#FFC300" fill-opacity="1" />
    </g>
    <g>
      <rect x="1100" y="34" width="10" height="10" rx="0" fill="#FFC300" fill-opacity="1" />
    </g>
    <g>
      <rect x="206" y="35" width="10" height="10" rx="0" fill="#FFC300" fill-opacity="1" />
    </g>
    <g>
      <rect x="226" y="35" width="10" height="10" rx="0" fill="#FFC300" fill-opacity="1" />
    </g>
    <g>
      <rect x="246" y="35" width="10" height="10" rx="0" fill="#FFC300" fill-opacity="1" />
    </g>
    <g>
      <rect x="525" y="35" width="10" height="10" rx="0" fill="#FFC300" fill-opacity="1" />
    </g>
    <g>
      <rect x="545" y="35" width="10" height="10" rx="0" fill="#FFC300" fill-opacity="1" />
    </g>
    <g>
      <rect x="639" y="41" width="4" height="4" rx="0" fill="#FFC300" fill-opacity="1" />
    </g>
    <g>
      <rect x="659" y="41" width="4" height="4" rx="0" fill="#FFC300" fill-opacity="1" />
    </g>
    <g>
      <rect x="679" y="41" width="4" height="4" rx="0" fill="#FFC300" fill-opacity="1" />
    </g>
    <g>
      <rect x="699" y="41" width="4" height="4" rx="0" fill="#FFC300" fill-opacity="1" />
    </g>
    <g>
      <rect x="719" y="41" width="4" height="4" rx="0" fill="#FFC300" fill-opacity="1" />
    </g>
    <g>
      <rect x="739" y="41" width="4" height="4" rx="0" fill="#FFC300" fill-opacity="1" />
    </g>
    <g>
      <rect x="759" y="41" width="4" height="4" rx="0" fill="#FFC300" fill-opacity="1" />
    </g>
    <g>
      <rect x="779" y="41" width="4" height="4" rx="0" fill="#FFC300" fill-opacity="1" />
    </g>
    <g>
      <rect x="266" y="35" width="90" height="10" rx="0" fill="#FFC300" fill-opacity="1" />
    </g>
  </g>
</svg>
