<svg xmlns="http://www.w3.org/2000/svg" xmlns:xlink="http://www.w3.org/1999/xlink" fill="none" version="1.1" width="109" height="20" viewBox="0 0 109 20"><g><g><g></g><g></g><g><path d="M22.601122566986085,2.8390579223632812L19.735782566986085,2.8390579223632812L17.776822566986084,8.580377922363281L20.642162566986084,8.580377922363281L22.601122566986085,2.8390579223632812Z" fill="#FFCC00" fill-opacity="1"/></g><g><path d="M30.93401861190796,19.99995958251953L33.79935861190796,19.99995958251953L35.31974861190796,15.552009582519531L32.48364861190796,15.552009582519531L30.93401861190796,19.99995958251953Z" fill="#FFCC00" fill-opacity="1"/></g><g><path d="M39.676261385345455,2.8390579223632812L36.84016138534546,2.8390579223632812L34.88116138534546,8.580377922363281L26.343621385345457,8.580377922363281L28.30258138534546,2.8390579223632812L25.43724138534546,2.8390579223632812L23.215131385345458,9.36902792236328L27.25001138534546,9.36902792236328L27.25001138534546,10.630857922363282L22.77656138534546,10.630857922363282L19.56036138534546,19.999957922363283L22.39647138534546,19.999957922363283L25.349521385345458,11.41949792236328L33.88706138534546,11.41949792236328L32.92226138534546,14.290157922363282L35.75836138534546,14.290157922363282L39.676261385345455,2.8390579223632812Z" fill="#FFCC00" fill-opacity="1"/></g><g><path d="M37.80498940292358,0L29.267440402923583,0L29.033534402923586,0.662461L33.068409402923585,0.662461L33.068409402923585,1.92429L28.594961402923584,1.92429L28.302579402923584,2.83912L36.84012940292358,2.83912L37.80498940292358,0Z" fill="#FFCC00" fill-opacity="1"/></g><g><path d="M42.54156473495483,2.8390579223632812L38.59440573495483,14.290157922363282L40.26098473495483,14.290157922363282L40.26098473495483,15.55195792236328L38.18506873495483,15.55195792236328L37.629544734954834,17.16085792236328L40.465644734954836,17.16085792236328L45.377664734954834,2.8390579223632812L42.54156473495483,2.8390579223632812Z" fill="#FFCC00" fill-opacity="1"/></g><g><path d="M54.23685316268921,1.92429L49.324843162689206,1.92429L49.324843162689206,0.662461L54.67543316268921,0.662461L54.90933316268921,0L46.371780162689205,0L45.37768316268921,2.83912L53.915233162689205,2.83912L54.23685316268921,1.92429Z" fill="#FFCC00" fill-opacity="1"/></g><g><path d="M39.50079107284546,19.99997433959961L48.03835107284546,19.99997433959961L49.00320107284546,17.16085433959961L40.46565207284546,17.16085433959961L39.50079107284546,19.99997433959961Z" fill="#FFCC00" fill-opacity="1"/></g><g><path d="M55.78648603378296,5.709717922363281L56.78058603378296,2.8390579223632812L53.91523703378296,2.8390579223632812L52.95037603378296,5.709717922363281L55.78648603378296,5.709717922363281Z" fill="#FFCC00" fill-opacity="1"/></g><g><path d="M49.0032172203064,17.160859279785157L51.8685572203064,17.160859279785157L52.8334272203064,14.290199279785156L49.9973182203064,14.290199279785156L49.0032172203064,17.160859279785157Z" fill="#FFCC00" fill-opacity="1"/></g><g><path d="M63.44688474472046,0L60.61078474472046,0L56.40047474472046,12.2397L58.18401474472046,12.2397L58.18401474472046,13.5016L55.96190474472046,13.5016L53.73980474472046,20L56.57590474472046,20L59.52896474472046,11.4196L62.36507474472046,11.4196L63.35916474472046,8.58044L60.493824744720456,8.58044L63.44688474472046,0Z" fill="#FFCC00" fill-opacity="1"/></g><g><path d="M63.3591742515564,8.580376796875L66.1952742515564,8.580376796875L67.18938425155639,5.709716796875L64.3240352515564,5.709716796875L63.3591742515564,8.580376796875Z" fill="#FFCC00" fill-opacity="1"/></g><g><path d="M64.23630929550171,14.290204219970704L65.2011792955017,11.419544219970703L62.36507029550171,11.419544219970703L61.37096929550171,14.290204219970704L64.23630929550171,14.290204219970704Z" fill="#FFCC00" fill-opacity="1"/></g><g><path d="M67.18935918807983,5.709717922363281L70.02545918807984,5.709717922363281L71.01956918807983,2.8390579223632812L68.15422018807983,2.8390579223632812L67.18935918807983,5.709717922363281Z" fill="#FFCC00" fill-opacity="1"/></g><g><path d="M66.10755563339234,17.160859279785157L67.07242563339233,14.290199279785156L64.23631663339233,14.290199279785156L63.242215633392334,17.160859279785157L66.10755563339234,17.160859279785157Z" fill="#FFCC00" fill-opacity="1"/></g><g><path d="M74.84978693222045,0L71.98444893222046,0L71.75054693222046,0.662461L74.58664693222046,0.662461L74.84978693222045,0Z" fill="#FFCC00" fill-opacity="1"/></g><g><path d="M71.01955938339233,2.839109073974609L73.85565938339234,2.839109073974609L74.17728938339233,1.9242820739746094L71.31194538339233,1.9242820739746094L71.01955938339233,2.839109073974609Z" fill="#FFCC00" fill-opacity="1"/></g><g><path d="M67.97880197128296,19.99997433959961L68.94367197128295,17.16085433959961L66.10755897128296,17.16085433959961L65.11346197128296,19.99997433959961L67.97880197128296,19.99997433959961Z" fill="#FFCC00" fill-opacity="1"/></g><g><path d="M85.14160850448609,11.4196L86.13570850448609,8.58044L77.59816850448608,8.58044L79.55712850448609,2.83912L90.93080850448608,2.83912L91.92490850448608,0L77.68588850448609,0L77.45197850448608,0.662461L80.31731850448608,0.662461L80.31731850448608,1.92429L77.01340850448608,1.92429L70.81490850448608,20L85.05390850448609,20L86.01880850448609,17.1609L74.64511850448608,17.1609L76.60406850448608,11.4196L85.14160850448609,11.4196Z" fill="#FFCC00" fill-opacity="1"/></g><g><path d="M94.76098008651734,0L92.80203008651733,5.70978L95.66737008651734,5.70978L97.62633008651733,0L94.76098008651734,0Z" fill="#FFCC00" fill-opacity="1"/></g><g><path d="M87.89002752304077,19.99997927978516L90.75537752304078,19.99997927978516L92.71432752304077,14.290199279785156L89.84898752304078,14.290199279785156L87.89002752304077,19.99997927978516Z" fill="#FFCC00" fill-opacity="1"/></g><g><path d="M95.66737342440796,5.709716796875L94.67327642440796,8.580376796875L97.50937642440796,8.580376796875L98.50348642440795,5.709716796875L95.66737342440796,5.709716796875Z" fill="#FFCC00" fill-opacity="1"/></g><g><path d="M92.71432256698608,14.290204219970704L95.55042256698609,14.290204219970704L96.54453256698608,11.419544219970703L93.67918356698608,11.419544219970703L92.71432256698608,14.290204219970704Z" fill="#FFCC00" fill-opacity="1"/></g><g><path d="M96.54450750350952,11.419549077148437L99.38061750350953,11.419549077148437L100.37471750350952,8.580429077148438L97.50936450350952,8.580429077148438L96.54450750350952,11.419549077148437Z" fill="#FFCC00" fill-opacity="1"/></g><g><path d="M100.37472295761108,8.580376796875L103.21082295761109,8.580376796875L104.20493295761108,5.709716796875L101.33958395761108,5.709716796875L100.37472295761108,8.580376796875Z" fill="#FFCC00" fill-opacity="1"/></g><g><path d="M101.25187910018921,14.290204219970704L102.2459791001892,11.419544219970703L99.38063010018921,11.419544219970703L98.41576910018921,14.290204219970704L101.25187910018921,14.290204219970704Z" fill="#FFCC00" fill-opacity="1"/></g><g><path d="M108.99998691757202,0L106.16388191757203,0L105.49140691757202,1.92429L108.32750691757202,1.92429L108.99998691757202,0Z" fill="#FFCC00" fill-opacity="1"/></g><g><path d="M104.20492315292358,5.709752376708984L107.04102315292359,5.709752376708984L107.91817315292359,3.1860923767089844L105.05282915292358,3.1860923767089844L104.20492315292358,5.709752376708984Z" fill="#FFCC00" fill-opacity="1"/></g><g><path d="M102.53834533065796,15.488939279785157L102.53834533065796,16.750769279785157L100.40396533065795,16.750769279785157L99.29290533065796,19.99997927978516L102.12901533065796,19.99997927978516L104.08796533065797,14.290199279785156L101.25186533065796,14.290199279785156L100.84253533065795,15.488939279785157L102.53834533065796,15.488939279785157Z" fill="#FFCC00" fill-opacity="1"/></g><g><path d="M2.4852423667907715,19.999938249511718L5.3213423667907715,19.999938249511718L7.543452366790771,13.501518249511719L4.707342366790772,13.501518249511719L2.4852423667907715,19.999938249511718Z" fill="#FFCC00" fill-opacity="1"/></g><g><path d="M6.870967415618896,7.19243L7.543447415618896,5.20505L7.982027415618896,3.94322L8.683737415618896,1.92429L9.093077415618897,0.662461L9.326977415618897,0L20.729917415618896,0L19.735817415618897,2.83912L11.198227415618897,2.83912L9.239267415618897,8.58044L17.776817415618897,8.58044L16.811917415618897,11.4196L8.274407415618896,11.4196L7.982027415618896,12.2397L5.1459174156188965,12.2397L6.4323974156188966,8.45426L6.870967415618896,7.19243Z" fill="#FFCC00" fill-opacity="1"/></g></g></g></svg>