<svg xmlns="http://www.w3.org/2000/svg" xmlns:xlink="http://www.w3.org/1999/xlink" fill="none" version="1.1" width="32" height="32" viewBox="0 0 32 32"><defs><mask id="master_svg0_1880_19181" style="mask-type:alpha" maskUnits="userSpaceOnUse"><g><rect x="7" y="4" width="19" height="24" rx="0" fill="#FFFFFF" fill-opacity="1"/></g></mask><linearGradient x1="0.9187556505203247" y1="0.28677651286125183" x2="0.05593593791127205" y2="0.6865860819816589" id="master_svg1_972_37529"><stop offset="0%" stop-color="#201C1B" stop-opacity="1"/><stop offset="36.000001430511475%" stop-color="#77390D" stop-opacity="1"/><stop offset="67.00000166893005%" stop-color="#EA8101" stop-opacity="1"/><stop offset="100%" stop-color="#F4B852" stop-opacity="1"/></linearGradient><mask id="master_svg2_1880_19176" style="mask-type:alpha" maskUnits="userSpaceOnUse"><g><rect x="7" y="4" width="19" height="24" rx="0" fill="#FFFFFF" fill-opacity="1"/></g></mask><linearGradient x1="0.10514062643051147" y1="0.6815142631530762" x2="1.1078861951828003" y2="0.32137274742126465" id="master_svg3_972_37524"><stop offset="0%" stop-color="#1F1D1C" stop-opacity="1"/><stop offset="37.00000047683716%" stop-color="#77390D" stop-opacity="1"/><stop offset="67.00000166893005%" stop-color="#EA8101" stop-opacity="1"/><stop offset="100%" stop-color="#F4FB52" stop-opacity="1"/></linearGradient><mask id="master_svg4_1880_19179" style="mask-type:alpha" maskUnits="userSpaceOnUse"><g><rect x="7" y="4" width="19" height="24" rx="0" fill="#FFFFFF" fill-opacity="1"/></g></mask><radialGradient cx="0" cy="0" r="1" gradientUnits="userSpaceOnUse" id="master_svg5_972_37519" gradientTransform="translate(15.69991421699524 11.448624413823524) rotate(0) scale(1.8266377322751737 1.7849677300430644)"><stop offset="0%" stop-color="#F4B852" stop-opacity="1"/><stop offset="33.000001311302185%" stop-color="#EA8101" stop-opacity="1"/><stop offset="63.999998569488525%" stop-color="#77390D" stop-opacity="1"/><stop offset="100%" stop-color="#211C1D" stop-opacity="1"/></radialGradient></defs><g><g><rect x="0" y="0" width="32" height="32" rx="5" fill="#000000" fill-opacity="1"/></g><g><g mask="url(#master_svg0_1880_19181)"><g><path d="M20.40197386379242,6.159536732299123L25.37637386379242,11.037546732299123C25.79977386379242,11.451886732299123,26.00817386379242,11.871126732299123,26.00167386379242,12.293606732299123C25.99507386379242,12.716076732299124,25.81287386379242,13.101166732299124,25.45677386379242,13.450516732299123C25.08427386379242,13.816146732299122,24.682173863792418,14.001396732299122,24.252173863792418,14.009496732299123C23.822173863792422,14.015996732299122,23.395473863792418,13.811266732299122,22.97197386379242,13.396926732299123L17.88435386379242,8.408416732299123C17.30664386379242,7.841346732299122,16.74864386379242,7.439976732299122,16.21198386379242,7.204356732299123C15.675293863792419,6.968746732299123,15.110723863792419,6.931376732299123,14.519903863792418,7.093866732299123C13.92743386379242,7.254736732299123,13.292313863792419,7.669086732299123,12.61122386379242,8.335296732299124C11.672473863792419,9.256626732299123,11.22440386379242,10.121086732299123,11.27038386379242,10.928676732299124C11.31631386379242,11.736246732299122,11.782413863792419,12.574706732299124,12.667033863792419,13.440806732299123L17.795723863792418,18.471496732299123C18.22408386379242,18.890796732299123,18.43417386379242,19.309996732299123,18.427573863792418,19.725996732299123C18.42097386379242,20.143596732299123,18.23717386379242,20.528696732299125,17.87448386379242,20.884496732299123C17.513443863792418,21.238696732299122,17.11463386379242,21.423996732299123,16.681353863792417,21.43859673229912C16.24808386379242,21.453296732299123,15.816443863792419,21.250096732299124,15.389733863792419,20.830896732299124L10.41530386379242,15.952896732299124C9.60620386379242,15.159996732299122,9.02193886379242,14.409196732299122,8.66252286379242,13.700756732299123C8.30310196379242,12.992306732299124,8.168525963792419,12.191236732299123,8.26207306379242,11.297526732299122C8.34577386379242,10.532196732299123,8.593589863792419,9.791226732299123,9.00717086379242,9.073036732299123C9.419103863792419,8.354796732299123,10.00993386379242,7.620336732299123,10.77638386379242,6.868006732299123C11.68886386379242,5.9726767322991225,12.560333863792419,5.286966732299123,13.39078386379242,4.809235732299123C14.219593863792419,4.331511732299123,15.02210386379242,4.066650032299123,15.796743863792418,4.011403032299123C16.57302386379242,3.956155932299123,17.33782386379242,4.108897732299123,18.09439386379242,4.469627732299123C18.85097386379242,4.830359732299123,19.61907386379242,5.392586732299123,20.40027386379242,6.159536732299123L20.40197386379242,6.159536732299123Z" fill="url(#master_svg1_972_37529)" fill-opacity="1"/></g></g><g mask="url(#master_svg2_1880_19176)"><g><path d="M12.598025525236299,25.842137757873537L7.625246525236298,20.964097757873535C7.201821525236298,20.548107757873534,6.993391135236298,20.130507757873534,6.9999558632362975,19.708037757873534C7.0065206152362975,19.285557757873534,7.188692525236298,18.900477757873535,7.544828525236298,18.551087757873535C7.917377525236297,18.185497757873534,8.319465525236298,18.000247757873534,8.749455525236296,17.992107757873534C9.179455525236298,17.985627757873537,9.606155525236296,18.188727757873536,10.029585525236298,18.604707757873534L15.115595525236298,23.593237757873535C15.694945525236298,24.160337757873535,16.251315525236297,24.561637757873534,16.7879755252363,24.797237757873535C17.324705525236297,25.032837757873537,17.8892055252363,25.068637757873535,18.481705525236297,24.907737757873534C19.0741055252363,24.746937757873535,19.709305525236296,24.332537757873535,20.390405525236297,23.664737757873535C21.329205525236297,22.743357757873536,21.777205525236297,21.878907757873534,21.731205525236298,21.071347757873536C21.685305525236295,20.263747757873535,21.219205525236298,19.425287757873534,20.3346055252363,18.557607757873534L17.602005525236297,15.900847757873535C17.173705525236297,15.481637757873536,16.963585525236297,15.062387757873536,16.970145525236298,14.646437757873535C16.976705525236298,14.228837757873535,17.160505525236296,13.843711757873535,17.5232055252363,13.487874757873534C17.884305525236297,13.133611757873535,18.283105525236298,12.948399257873534,18.716405525236297,12.933774470873535C19.149605525236296,12.919149657873534,19.581305525236296,13.122249757873535,20.0080055252363,13.541499757873535L22.5846055252363,16.045487757873534C23.393705525236296,16.838427757873536,23.9780055252363,17.589137757873537,24.337405525236296,18.297627757873535C24.696805525236297,19.006077757873534,24.8314055252363,19.807147757873537,24.737905525236297,20.700847757873536C24.654205525236296,21.466187757873534,24.4064055252363,22.207147757873535,23.992805525236296,22.925387757873537C23.580805525236297,23.643537757873535,22.9900055252363,24.378037757873535,22.223605525236298,25.130337757873534C21.311105525236297,26.025737757873536,20.439605525236296,26.711437757873533,19.6092055252363,27.189137757873535C18.778705525236298,27.666837757873537,17.976205525236296,27.933337757873534,17.199905525236296,27.988637757873533C16.4236555252363,28.043837757873533,15.658845525236297,27.891137757873537,14.902275525236298,27.530337757873536C14.145665525236296,27.169637757873534,13.377585525236297,26.607437757873534,12.596385525236297,25.840437757873538L12.598025525236299,25.842137757873537Z" fill="url(#master_svg3_972_37524)" fill-opacity="1"/></g></g><g mask="url(#master_svg4_1880_19179)"><g><path d="M17.52655908111572,11.44699206665039Q17.52655908111572,11.53584206665039,17.517759081115724,11.62426206665039Q17.508969081115723,11.712682066650391,17.49145908111572,11.79982206665039Q17.473959081115723,11.88696206665039,17.44790908111572,11.97198206665039Q17.421859081115723,12.05700206665039,17.387519081115723,12.139092066650392Q17.353169081115723,12.221172066650391,17.310869081115722,12.299532066650391Q17.26856908111572,12.37788206665039,17.218719081115722,12.45176206665039Q17.168859081115723,12.52563206665039,17.111929081115722,12.59431206665039Q17.054999081115724,12.662992066650391,16.99154908111572,12.725822066650391Q16.928089081115722,12.788642066650391,16.858729081115722,12.84501206665039Q16.789359081115723,12.90137206665039,16.714739081115724,12.95073206665039Q16.640129081115724,13.00009206665039,16.56098908111572,13.041972066650391Q16.481849081115723,13.08386206665039,16.39893908111572,13.11786206665039Q16.316039081115722,13.151862066650391,16.230159081115723,13.17765206665039Q16.144289081115723,13.20344206665039,16.056279081115722,13.22077206665039Q15.968259081115722,13.238112066650391,15.878959081115722,13.24681206665039Q15.789649081115723,13.255522066650391,15.699919081115723,13.255522066650391Q15.610179081115723,13.255522066650391,15.520869081115723,13.24681206665039Q15.431569081115722,13.238112066650391,15.343549081115723,13.22077206665039Q15.255539081115723,13.20344206665039,15.169669081115723,13.17765206665039Q15.083789081115723,13.151862066650391,15.000889081115723,13.11786206665039Q14.917979081115723,13.08386206665039,14.838840081115723,13.041972066650391Q14.759698081115722,13.00009206665039,14.685085081115723,12.95073206665039Q14.610471081115723,12.90137206665039,14.541103081115722,12.845002066650391Q14.471735081115723,12.788642066650391,14.408281081115723,12.725822066650391Q14.344827081115723,12.662992066650391,14.287898081115722,12.59431206665039Q14.230970081115723,12.52563206665039,14.181114081115723,12.45176206665039Q14.131259081115722,12.37788206665039,14.088957081115723,12.299532066650391Q14.046655081115723,12.221172066650391,14.012314081115722,12.139092066650392Q13.977973081115723,12.05700206665039,13.951923781115722,11.97198206665039Q13.925874481115722,11.88696206665039,13.908367581115723,11.79982206665039Q13.890860681115722,11.712682066650391,13.882064881115722,11.62426206665039Q13.873269081115723,11.53584206665039,13.873269081115723,11.44699206665039Q13.873269081115723,11.358142066650391,13.882064881115722,11.26972206665039Q13.890860681115722,11.18130206665039,13.908367581115723,11.09416206665039Q13.925874481115722,11.007022066650391,13.951923781115722,10.922002066650391Q13.977973081115723,10.83698206665039,14.012314081115722,10.754902066650391Q14.046655081115723,10.67281206665039,14.088957081115723,10.594458066650391Q14.131259081115722,10.516101066650391,14.181114081115723,10.442227066650391Q14.230970081115723,10.368353066650391,14.287898081115722,10.29967306665039Q14.344827081115723,10.23099306665039,14.408281081115723,10.16816906665039Q14.471735081115723,10.10534406665039,14.541103081115722,10.04898006665039Q14.610471081115723,9.99261506665039,14.685085081115723,9.943254066650391Q14.759698081115722,9.89389306665039,14.838840081115723,9.852011066650391Q14.917979081115723,9.81012906665039,15.000889081115723,9.77612806665039Q15.083789081115723,9.742128066650391,15.169669081115723,9.716336766650391Q15.255539081115723,9.690545766650391,15.343549081115723,9.67321246665039Q15.431569081115722,9.65587916665039,15.520869081115723,9.64717063665039Q15.610179081115723,9.63846206665039,15.699919081115723,9.63846206665039Q15.789649081115723,9.63846206665039,15.878959081115722,9.64717063665039Q15.968259081115722,9.65587916665039,16.056279081115722,9.67321246665039Q16.144289081115723,9.690545766650391,16.230159081115723,9.716336766650391Q16.316039081115722,9.742128066650391,16.39893908111572,9.77612806665039Q16.481849081115723,9.81012906665039,16.56098908111572,9.852011066650391Q16.640129081115724,9.89389306665039,16.714739081115724,9.943254066650391Q16.789359081115723,9.99261506665039,16.858729081115722,10.04898006665039Q16.928089081115722,10.10534406665039,16.99154908111572,10.16816906665039Q17.054999081115724,10.23099306665039,17.111929081115722,10.29967306665039Q17.168859081115723,10.368353066650391,17.218709081115723,10.442227066650391Q17.26856908111572,10.516101066650391,17.310869081115722,10.594458066650391Q17.353169081115723,10.67281206665039,17.387519081115723,10.754902066650391Q17.421859081115723,10.83698206665039,17.44790908111572,10.922002066650391Q17.473959081115723,11.007022066650391,17.49145908111572,11.09416206665039Q17.508969081115723,11.18130206665039,17.517759081115724,11.26972206665039Q17.52655908111572,11.358142066650391,17.52655908111572,11.44699206665039Z" fill="url(#master_svg5_972_37519)" fill-opacity="1"/></g></g></g></g></svg>