<svg xmlns="http://www.w3.org/2000/svg" xmlns:xlink="http://www.w3.org/1999/xlink" fill="none" version="1.1" width="20" height="20" viewBox="0 0 20 20"><defs><clipPath id="master_svg0_1099_46442"><rect x="0" y="0" width="20" height="20" rx="0"/></clipPath></defs><g clip-path="url(#master_svg0_1099_46442)"><g><path d="M10.833376480560304,3.3333358764648438L9.166706480560304,3.3333358764648438L9.166706480560304,13.333335876464844L7.500036480560302,13.333335876464844L7.500036480560302,15.000035876464844L9.166706480560304,15.000035876464844L9.166706480560304,16.666635876464845L10.833376480560304,16.666635876464845L10.833376480560304,15.000035876464844L12.499996480560302,15.000035876464844L12.499996480560302,13.333335876464844L10.833376480560304,13.333335876464844L10.833376480560304,3.3333358764648438ZM4.166666865360303,9.999995876464844L5.833336480560303,9.999995876464844L5.833336480560303,11.666655876464844L4.166666865360303,11.666655876464844L4.166666865360303,9.999995876464844ZM15.833346480560303,9.999995876464844L14.166746480560303,9.999995876464844L14.166746480560303,11.666655876464844L15.833346480560303,11.666655876464844L15.833346480560303,9.999995876464844ZM5.833356480560303,11.666675876464843L7.500016480560303,11.666675876464843L7.500016480560303,13.333335876464844L5.833356480560303,13.333335876464844L5.833356480560303,11.666675876464843ZM12.500016480560303,11.666675876464843L14.166646480560303,11.666675876464843L14.166646480560303,13.333335876464844L12.500016480560303,13.333335876464844L12.500016480560303,11.666675876464843Z" fill-rule="evenodd" fill="#999999" fill-opacity="1"/></g></g></svg>